<svg width="260" height="123" viewBox="0 0 260 123" fill="none" xmlns="http://www.w3.org/2000/svg">
<g clip-path="url(#clip0_3_1766)">
<path d="M229.83 0C230.189 3.29835e-05 230.48 0.291426 230.48 0.650391V29.3604H259.25C259.609 29.3604 259.9 29.6509 259.9 30.0098V59.0303C259.9 59.3891 259.609 59.6797 259.25 59.6797H230.229C229.871 59.6794 229.58 59.389 229.58 59.0303V30.3203H146.04V122.16C146.04 122.519 145.749 122.81 145.39 122.81H116.37C116.011 122.81 115.72 122.519 115.72 122.16V30.8799H32.1553C32.3776 31.1633 32.503 31.5279 32.4805 31.9199C32.4105 32.9999 32.3701 34.0904 32.3701 35.1904C32.3703 65.6503 57.1602 90.4297 87.6201 90.4297H89.8896C90.7696 90.4297 91.4805 91.1505 91.4805 92.0205H91.4902V121.35C91.4902 122.15 90.8302 122.81 90.0303 122.811H87.6299C39.2401 122.81 0.00996665 83.5802 0.00976562 35.1904C0.00976562 34.0404 0.0300781 32.89 0.0800781 31.75C0.110108 30.9401 0.779939 30.3106 1.58984 30.3105H30.9902C31.0648 30.3106 31.1377 30.3167 31.209 30.3271C31.2042 30.2955 31.2002 30.2634 31.2002 30.2305V1.20996C31.2002 0.851135 31.4908 0.560731 31.8496 0.560547H116.01C116.369 0.560547 116.66 0.851021 116.66 1.20996V29.6602H145.021V0.650391C145.021 0.291436 145.311 4.94738e-05 145.67 0H229.83Z" fill="url(#paint0_linear_3_1766)"/>
</g>
<defs>
<linearGradient id="paint0_linear_3_1766" x1="115.72" y1="-9" x2="115.72" y2="123" gradientUnits="userSpaceOnUse">
<stop stop-color="#56ADFF"/>
<stop offset="1" stop-color="#00319A"/>
</linearGradient>
<clipPath id="clip0_3_1766">
<rect width="259.9" height="122.81" fill="white"/>
</clipPath>
</defs>
</svg>
